<?xml version="1.0" standalone="no"?><!DOCTYPE svg PUBLIC "-//W3C//DTD SVG 1.1//EN" "http://www.w3.org/Graphics/SVG/1.1/DTD/svg11.dtd"><svg width="16" height="16" viewBox="0 0 16 16" version="1.1" xmlns="http://www.w3.org/2000/svg" xmlns:xlink="http://www.w3.org/1999/xlink"><defs><style type="text/css"><![CDATA[

]]></style></defs><g class="transform-group"><g transform="scale(0.015625, 0.015625)"><path d="M957.3376 883.0976 586.24 512l371.0976-371.0976c20.1728-20.1728 20.48-53.76 0-74.24-20.6848-20.6848-53.76-20.48-74.24 0L512 437.76 140.9024 66.6624c-20.1728-20.1728-53.76-20.48-74.24 0-20.5824 20.6848-20.48 53.76 0 74.24L437.76 512 66.6624 883.0976c-20.1728 20.1728-20.48 53.76 0 74.24 20.6848 20.6848 53.76 20.48 74.24 0L512 586.24l371.0976 371.0976c20.1728 20.1728 53.76 20.48 74.24 0C978.0224 936.7552 977.8176 903.68 957.3376 883.0976z" fill="#272636"></path></g></g></svg>